<svg width="1340" height="1666" viewBox="0 0 1340 1666" fill="none" xmlns="http://www.w3.org/2000/svg">
<path d="M1209.11 326.481L25.3028 0.957737C12.5705 -2.54337 0 7.03708 0 20.2419V1572.18C0 1578.37 2.87114 1584.22 7.77417 1588L70.549 1636.49C71.8448 1637.49 73.2585 1638.33 74.7585 1638.99L132.667 1664.32C135.195 1665.43 137.924 1666 140.684 1666H192.5H244.816C247.576 1666 250.305 1665.43 252.833 1664.32L309.584 1639.49C311.842 1638.51 313.898 1637.11 315.648 1635.38L1281.49 677.994C1282.82 676.671 1283.96 675.167 1284.88 673.525L1336.97 580.039C1338.63 577.062 1339.5 573.711 1339.5 570.304V483.1C1339.5 480.719 1339.07 478.357 1338.24 476.126L1316.46 417.571C1315.82 415.865 1314.96 414.254 1313.89 412.782L1285.02 373.093C1284.01 371.703 1282.83 370.45 1281.5 369.363L1260.72 352.403C1259.58 351.471 1258.33 350.667 1257.02 350.008L1212.75 327.876C1211.59 327.293 1210.37 326.826 1209.11 326.481Z" fill="url(#paint0_linear_8_28)"/>
<defs>
<linearGradient id="paint0_linear_8_28" x1="672.75" y1="-5.99999" x2="-7.30334e-06" y2="3254" gradientUnits="userSpaceOnUse">
<stop stop-color="#FF565E"/>
<stop offset="1" stop-color="#FF565E" stop-opacity="0"/>
</linearGradient>
</defs>
</svg>
